<svg height="512" viewBox="0 0 34 58" width="512" xmlns="http://www.w3.org/2000/svg"><g id="Page-1" fill="none" fill-rule="evenodd"><g id="009---Suitcase" fill-rule="nonzero"><path id="Shape" d="m11 8v8.73h-4v-8.73c.29219553.20804266.64131922.32115873 1 .324h2c.3586808-.00284127.7078045-.11595734 1-.324z" fill="#95a5a5"/><path id="Shape" d="m27 8v8.73h-4v-8.73c.2921955.20804266.6413192.32115873 1 .324h2c.3586808-.00284127.7078045-.11595734 1-.324z" fill="#95a5a5"/><path id="Shape" d="m9 50v5.5c0 1.3807119-1.11928813 2.5-2.5 2.5s-2.5-1.1192881-2.5-2.5v-5.5z" fill="#3f5c6c"/><path id="Shape" d="m30 50v5.5c0 .893164-.4764973 1.7184816-1.25 2.1650636s-1.7264973.446582-2.5 0-1.25-1.2718996-1.25-2.1650636v-5.5z" fill="#3f5c6c"/><path id="Shape" d="m34 22v27c0 1.6568542-1.3431458 3-3 3h-28c-1.65685425 0-3-1.3431458-3-3v-27c0-3.3137085 2.6862915-6 6-6h22c3.3137085 0 6 2.6862915 6 6z" fill="#f29c1f"/><path id="Shape" d="m28 2v5c0 1.1045695-.8954305 2-2 2h-2c-1.1045695 0-2-.8954305-2-2v-2h-10v2c0 1.1045695-.8954305 2-2 2h-2c-1.1045695 0-2-.8954305-2-2v-5c.0032948-1.10320187.89679813-1.9967052 2-2h18c1.1032019.0032948 1.9967052.89679813 2 2z" fill="#3f5c6c"/><path id="Shape" d="m12 42h22v4h-34v-4h7z" fill="#e64c3c"/><path id="Shape" d="m9 23c-.55228475 0-1-.4477153-1-1v-6c0-.5522847.44771525-1 1-1s1 .4477153 1 1v6c0 .5522847-.44771525 1-1 1z" fill="#a56a43"/><path id="Shape" d="m11 31h-4c-.55228475 0-1-.4477153-1-1v-5.586c.00005664-.2651948.10545063-.5195073.293-.707l2-2c.39049985-.3903819 1.02350015-.3903819 1.414 0l2 2c.1875494.1874927.2929434.4418052.293.707v5.586c0 .5522847-.4477153 1-1 1z" fill="#f9eab0"/></g></g></svg>